<svg width="149" height="130" viewBox="0 0 144 125" fill="none" xmlns="http://www.w3.org/2000/svg">
    <path fill-rule="evenodd" clip-rule="evenodd" d="M92.771 16.36c0-3.156-2.184-5.8-5.241-6.609-.696-3.36-3.818-5.91-7.474-5.91h-.016C78.665 1.51 76.045 0 73.214 0c-2.483 0-4.738 1.105-6.193 2.902a2.86 2.86 0 0 1-2.085 1.054c-2.858.122-5.3 1.8-6.454 4.19a2.968 2.968 0 0 1-1.9 1.57c-3.08.806-5.352 3.51-5.352 6.722 0 3.841 3.251 6.967 7.263 6.967.107 0 .237-.01.388-.023l.097-.008c1.958-.17 3.85.498 5.177 1.851a5.496 5.496 0 0 1 1.194 1.837c.391.997 1.23 1.88 2.302 1.88h8.6c1.097 0 1.951-.925 2.334-1.954a5.687 5.687 0 0 1 1.31-2.027c1.294-1.322 3.122-1.96 4.998-1.758.291.031.534.047.712.047 3.947 0 7.166-3.095 7.166-6.89zM78.86 31.944H65.126c-.578 0-1.104.487-1.245 1.193-.717 3.483-2.107 7.09-3.863 10.628-.441.887.54 1.86 1.407 1.382l4.908-2.704c.32-.188.706-.188 1.04-.015.333.172.59.517.705.941l.697 2.525c.242.874 1.435.987 1.835.174l1.486-3.013c.244-.47.693-.769 1.117-.753.462 0 .873.298 1.104.785l4.22 9.09c.37.797 1.52.749 1.821-.077l3.239-8.872c.026-.063.034-.13.005-.191-1.583-3.296-2.835-6.652-3.496-9.9-.142-.706-.668-1.193-1.246-1.193zm5.33 18.184c.595-1.555 2.751-1.733 3.65-.331 7.163 11.16 16.545 20.329 16.689 20.469.422.417.581 1.097.396 1.715-.185.618-.687 1.02-1.241 1.02H40.317c-.554 0-1.056-.402-1.24-1.02-.186-.618-.027-1.298.395-1.715.13-.122 8.19-8.008 15.076-18.046.182-.266.426-.485.712-.636l8.533-4.508a1.973 1.973 0 0 1 2.817 1.2l1.192 4.156c.158.571.594.973 1.109 1.035.502.077 1.003-.216 1.267-.726l1.218-2.359c.744-1.443 2.816-1.418 3.526.043l3.837 7.895c.238.494.673.788 1.148.788h.067c.488-.031.937-.387 1.135-.912l3.08-8.068z" fill="#fff"/>
    <path d="M30.169 97.528c-.416-.512-.624-.968-.624-1.368 0-.416.344-.96 1.032-1.632.4-.384.824-.576 1.272-.576.448 0 1.072.4 1.872 1.2.224.272.544.536.96.792.416.24.8.36 1.152.36 1.488 0 2.232-.608 2.232-1.824 0-.368-.208-.672-.624-.912-.4-.256-.904-.44-1.512-.552a14.003 14.003 0 0 1-1.968-.528 13.84 13.84 0 0 1-1.968-.888c-.608-.336-1.12-.864-1.536-1.584-.4-.736-.6-1.616-.6-2.64 0-1.408.52-2.632 1.56-3.672 1.056-1.056 2.488-1.584 4.296-1.584.96 0 1.832.128 2.616.384.8.24 1.352.488 1.656.744l.6.456c.496.464.744.856.744 1.176 0 .32-.192.76-.576 1.32-.544.8-1.104 1.2-1.68 1.2-.336 0-.752-.16-1.248-.48a3.535 3.535 0 0 1-.288-.24 2.924 2.924 0 0 0-.36-.312c-.336-.208-.768-.312-1.296-.312-.512 0-.944.128-1.296.384-.336.24-.504.584-.504 1.032 0 .432.2.784.6 1.056.416.272.928.456 1.536.552.608.096 1.272.248 1.992.456.72.192 1.384.432 1.992.72.608.288 1.112.792 1.512 1.512.416.704.624 1.576.624 2.616s-.208 1.96-.624 2.76c-.416.784-.96 1.392-1.632 1.824-1.296.848-2.68 1.272-4.152 1.272a8.4 8.4 0 0 1-2.136-.264c-.672-.192-1.216-.424-1.632-.696-.848-.512-1.44-1.008-1.776-1.488l-.216-.264zM55.25 83.152c.16-.288.391-.48.695-.576.304-.096.68-.144 1.128-.144.464 0 .832.04 1.104.12.288.08.496.176.624.288.144.112.248.28.312.504.096.256.144.664.144 1.224v13.32c0 .384-.016.664-.048.84-.016.176-.088.384-.216.624-.224.432-.848.648-1.872.648-.624 0-1.056-.048-1.296-.144a1.402 1.402 0 0 1-.6-.456c-3.6-4.8-5.968-7.936-7.104-9.408v7.896c0 .384-.016.664-.048.84-.016.176-.088.384-.216.624-.224.432-.848.648-1.872.648-.992 0-1.6-.216-1.824-.648a2.168 2.168 0 0 1-.24-.648 10.928 10.928 0 0 1-.024-.84V84.472c0-.608.072-1.048.216-1.32.16-.288.392-.48.696-.576.304-.096.696-.144 1.176-.144s.856.048 1.128.144c.288.08.488.176.6.288.064.048.248.256.552.624 3.376 4.592 5.632 7.624 6.768 9.096v-8.112c0-.608.072-1.048.216-1.32zM71.323 83.656l6.48 13.392c.272.544.407.952.407 1.224 0 .576-.463 1.096-1.391 1.56-.544.272-.977.408-1.297.408-.303 0-.56-.072-.768-.216a1.638 1.638 0 0 1-.431-.456l-.36-.72-1.248-2.592h-6.648l-1.248 2.592c-.16.32-.288.552-.385.696-.08.144-.224.296-.431.456-.193.144-.449.216-.769.216-.303 0-.727-.136-1.272-.408-.928-.448-1.392-.96-1.392-1.536 0-.272.137-.68.408-1.224l6.48-13.416c.177-.368.44-.664.793-.888a2.184 2.184 0 0 1 1.151-.336c.864 0 1.504.416 1.92 1.248zm-1.944 5.76-1.585 3.288h3.193l-1.608-3.288zM89.319 95.392l.432-.312c.544-.32.928-.48 1.152-.48.496 0 1.032.448 1.608 1.344.352.56.528 1.008.528 1.344 0 .336-.112.616-.336.84a3.491 3.491 0 0 1-.744.6 58.27 58.27 0 0 1-.84.504c-.256.16-.792.368-1.608.624a7.92 7.92 0 0 1-2.376.384c-.752 0-1.52-.096-2.304-.288-.768-.208-1.568-.544-2.4-1.008a10.536 10.536 0 0 1-2.208-1.728c-.656-.688-1.2-1.56-1.632-2.616-.416-1.072-.624-2.232-.624-3.48 0-1.248.208-2.376.624-3.384.416-1.024.944-1.864 1.584-2.52a9.187 9.187 0 0 1 2.232-1.68c1.568-.864 3.144-1.296 4.728-1.296.752 0 1.512.12 2.28.36.784.224 1.376.456 1.776.696l.576.336c.288.176.512.32.672.432.416.336.624.72.624 1.152 0 .416-.168.856-.504 1.32-.624.864-1.184 1.296-1.68 1.296-.288 0-.696-.176-1.224-.528-.672-.544-1.568-.816-2.688-.816-1.04 0-2.064.36-3.072 1.08-.48.352-.88.848-1.2 1.488-.32.64-.48 1.368-.48 2.184 0 .8.16 1.52.48 2.16.32.64.728 1.144 1.224 1.512.976.704 1.992 1.056 3.048 1.056.496 0 .96-.064 1.392-.192.448-.128.768-.256.96-.384zM102.152 91.168c2.448 2.352 4.184 4.12 5.208 5.304.528.592.792 1.096.792 1.512 0 .4-.32.88-.96 1.44-.64.544-1.168.816-1.584.816-.4 0-.888-.336-1.464-1.008l-5.28-6.024v4.68c0 .384-.016.664-.048.84-.016.176-.088.384-.216.624-.224.432-.848.648-1.872.648-1.12 0-1.776-.304-1.968-.912-.096-.256-.144-.664-.144-1.224V84.52c0-.368.008-.64.024-.816.032-.192.112-.408.24-.648.224-.432.848-.648 1.872-.648 1.12 0 1.784.296 1.992.888.08.272.12.688.12 1.248v4.584a462.034 462.034 0 0 0 5.28-6.024c.56-.656 1.048-.984 1.464-.984.416 0 .944.28 1.584.84.64.544.96 1.024.96 1.44 0 .4-.24.88-.72 1.44-.928 1.072-2.368 2.544-4.32 4.416l-.96.912zM8.794 106.192c2.368 0 4.424.856 6.168 2.568 1.744 1.712 2.616 3.84 2.616 6.384 0 2.528-.832 4.688-2.496 6.48-1.664 1.776-3.712 2.664-6.144 2.664s-4.504-.88-6.216-2.64c-1.696-1.76-2.544-3.856-2.544-6.288 0-1.328.24-2.568.72-3.72.48-1.168 1.12-2.144 1.92-2.928.8-.784 1.72-1.4 2.76-1.848a8.051 8.051 0 0 1 3.216-.672zm-4.368 9.048c0 1.424.456 2.584 1.368 3.48.928.88 1.96 1.32 3.096 1.32 1.136 0 2.16-.432 3.072-1.296.912-.864 1.368-2.024 1.368-3.48s-.464-2.624-1.392-3.504c-.912-.88-1.936-1.32-3.072-1.32-1.136 0-2.16.448-3.072 1.344-.912.88-1.368 2.032-1.368 3.456zM35.242 106.672c.944.464 1.416.976 1.416 1.536 0 .256-.12.64-.36 1.152l-6.624 13.44c-.176.352-.448.64-.816.864a2.14 2.14 0 0 1-1.104.312h-.24c-.4 0-.784-.104-1.152-.312a2.158 2.158 0 0 1-.792-.864l-6.624-13.44c-.24-.512-.36-.896-.36-1.152 0-.56.472-1.072 1.416-1.536.528-.272.928-.408 1.2-.408.288 0 .504.032.648.096.144.064.28.176.408.336.144.192.272.408.384.648.128.224.44.888.936 1.992l1.584 3.48c.576 1.232 1.112 2.4 1.608 3.504.512 1.088.8 1.696.864 1.824l4.8-10.512c.128-.304.24-.544.336-.72.288-.432.64-.648 1.056-.648.416 0 .888.136 1.416.408zM43.231 119.752h7.392c.368 0 .64.016.816.048.192.016.408.088.648.216.432.224.648.848.648 1.872 0 1.12-.296 1.776-.888 1.968-.272.096-.688.144-1.248.144h-9.504c-1.12 0-1.776-.304-1.968-.912-.096-.256-.144-.664-.144-1.224V108.52c0-.816.152-1.368.456-1.656.304-.304.88-.456 1.728-.456h9.456c.368 0 .64.016.816.048.192.016.408.088.648.216.432.224.648.848.648 1.872 0 1.12-.296 1.776-.888 1.968-.272.096-.688.144-1.248.144h-7.368v2.424h4.752c.368 0 .64.016.816.048.192.016.408.088.648.216.432.224.648.848.648 1.872 0 1.12-.304 1.776-.912 1.968-.272.096-.688.144-1.248.144h-4.704v2.424zM68.752 121.024c.24.576.36.992.36 1.248 0 .608-.496 1.12-1.488 1.536-.512.224-.928.336-1.248.336-.304 0-.56-.072-.768-.216a1.95 1.95 0 0 1-.432-.48c-.16-.304-.784-1.752-1.872-4.344l-.744.048h-3.024v2.712c0 .368-.016.648-.048.84-.016.176-.088.384-.216.624-.224.432-.848.648-1.872.648-1.12 0-1.776-.296-1.968-.888-.096-.272-.144-.688-.144-1.248v-13.32c0-.368.008-.64.024-.816.032-.192.112-.408.24-.648.224-.432.848-.648 1.872-.648h5.184c1.408 0 2.776.512 4.104 1.536.64.496 1.168 1.168 1.584 2.016.416.848.624 1.792.624 2.832 0 1.808-.6 3.296-1.8 4.464.352.848.896 2.104 1.632 3.768zm-9.216-6.12h3.072c.464 0 .928-.176 1.392-.528.464-.352.696-.88.696-1.584 0-.704-.232-1.232-.696-1.584-.464-.368-.944-.552-1.44-.552h-3.024v4.248zM83.068 106.408c.368 0 .64.016.816.048.192.016.4.088.624.216.24.128.408.344.504.648.096.304.144.712.144 1.224s-.048.92-.144 1.224c-.096.304-.264.52-.504.648-.24.112-.456.184-.648.216-.176.016-.456.024-.84.024h-7.344v2.424h4.728c.384 0 .664.016.84.048.192.016.408.088.648.216.416.24.624.872.624 1.896 0 1.12-.304 1.784-.912 1.992-.256.08-.664.12-1.224.12h-4.704v4.536c0 .384-.016.664-.048.84-.016.176-.088.384-.216.624-.224.432-.848.648-1.872.648-1.12 0-1.776-.304-1.968-.912-.096-.256-.144-.664-.144-1.224V108.52c0-.816.152-1.368.456-1.656.304-.304.88-.456 1.728-.456h9.456zM91.958 120.448h6.528c.528 0 .912.064 1.152.192.24.112.4.296.48.552.08.256.12.6.12 1.032 0 .416-.04.752-.12 1.008-.08.256-.216.432-.408.528-.304.16-.72.24-1.248.24h-8.64c-1.12 0-1.776-.304-1.968-.912-.096-.256-.144-.664-.144-1.224V108.52c0-.368.008-.64.024-.816.032-.192.112-.408.24-.648.224-.432.848-.648 1.872-.648 1.12 0 1.784.296 1.992.888.08.272.12.688.12 1.248v11.904zM110.052 106.192c2.368 0 4.424.856 6.168 2.568 1.744 1.712 2.616 3.84 2.616 6.384 0 2.528-.832 4.688-2.496 6.48-1.664 1.776-3.712 2.664-6.144 2.664s-4.504-.88-6.216-2.64c-1.696-1.76-2.544-3.856-2.544-6.288 0-1.328.24-2.568.72-3.72.48-1.168 1.12-2.144 1.92-2.928.8-.784 1.72-1.4 2.76-1.848a8.051 8.051 0 0 1 3.216-.672zm-4.368 9.048c0 1.424.456 2.584 1.368 3.48.928.88 1.96 1.32 3.096 1.32 1.136 0 2.16-.432 3.072-1.296.912-.864 1.368-2.024 1.368-3.48s-.464-2.624-1.392-3.504c-.912-.88-1.936-1.32-3.072-1.32-1.136 0-2.16.448-3.072 1.344-.912.88-1.368 2.032-1.368 3.456zM141.453 106.504c1.072.384 1.608.896 1.608 1.536 0 .208-.096.6-.288 1.176l-4.608 13.32a2.462 2.462 0 0 1-.168.408c-.08.16-.296.376-.648.648-.336.256-.744.384-1.224.384-.464 0-.872-.128-1.224-.384-.336-.272-.56-.536-.672-.792l-2.808-8.28-2.712 8.016a2.076 2.076 0 0 1-.216.408c-.112.176-.24.336-.384.48a1.801 1.801 0 0 1-1.32.552c-.512 0-.936-.12-1.272-.36-.32-.24-.536-.48-.648-.72l-.168-.36-4.632-13.32c-.176-.528-.264-.92-.264-1.176 0-.64.536-1.144 1.608-1.512.464-.16.88-.24 1.248-.24.384 0 .672.128.864.384.208.256.392.648.552 1.176l2.64 8.016 2.616-7.896c.224-.672.632-1.136 1.224-1.392.256-.112.584-.168.984-.168.416 0 .8.136 1.152.408.352.256.576.512.672.768l2.76 8.328 2.64-8.064c.128-.368.232-.64.312-.816.08-.176.224-.344.432-.504a1.28 1.28 0 0 1 .816-.264c.32 0 .696.08 1.128.24z" fill="#fff"/>
</svg>
