<svg width="24" height="24" viewBox="0 0 24 24" fill="none" xmlns="http://www.w3.org/2000/svg">
    <path fill="#fff" d="M0 0h24v24H0z"/>
    <path fill-rule="evenodd" clip-rule="evenodd" d="M23.04 12.261c0-.815-.073-1.6-.21-2.352H12v4.448h6.19a5.29 5.29 0 0 1-2.296 3.471v2.886h3.717c2.174-2.002 3.429-4.95 3.429-8.453z" fill="#4285F4"/>
    <path fill-rule="evenodd" clip-rule="evenodd" d="M12 23.5c3.104 0 5.708-1.03 7.61-2.786l-3.716-2.886c-1.03.69-2.347 1.098-3.895 1.098-2.995 0-5.53-2.023-6.434-4.741H1.723v2.98A11.496 11.496 0 0 0 12 23.5z" fill="#34A853"/>
    <path fill-rule="evenodd" clip-rule="evenodd" d="M5.565 14.185A6.913 6.913 0 0 1 5.205 12c0-.758.13-1.495.36-2.185v-2.98H1.723A11.495 11.495 0 0 0 .5 12c0 1.856.444 3.612 1.223 5.165l3.842-2.98z" fill="#FBBC05"/>
    <path fill-rule="evenodd" clip-rule="evenodd" d="M12 5.074c1.688 0 3.204.58 4.396 1.72l3.298-3.299C17.702 1.64 15.099.5 12 .5A11.496 11.496 0 0 0 1.723 6.835l3.842 2.98c.904-2.718 3.44-4.741 6.434-4.741z" fill="#EA4335"/>
</svg>
