<svg width="20" height="20" viewBox="0 0 20 20" fill="none" xmlns="http://www.w3.org/2000/svg">
    <path fill-rule="evenodd" clip-rule="evenodd" d="M3.594 7.901c-.261.527-.261 1.126-.261 2.325v3.743c0 1.665 0 2.497.558 3.014.5.464 1.275.512 2.728.517v-4.414c0-1.11.947-1.882 1.952-1.882h2.857c1.006 0 1.953.772 1.953 1.882V17.5c1.452-.005 2.227-.053 2.727-.517.558-.517.558-1.35.558-3.014v-3.743c0-1.199 0-1.798-.261-2.325-.261-.526-.752-.916-1.734-1.696l-.952-.757c-1.775-1.41-2.662-2.115-3.72-2.115-1.056 0-1.944.705-3.718 2.115l-.953.757c-.981.78-1.472 1.17-1.734 1.696zm7.787 9.599v-4.296H8.619V17.5h2.762z" fill="#979197"/>
</svg>
