<svg width="25" height="24" viewBox="0 0 25 24" fill="none" xmlns="http://www.w3.org/2000/svg">
    <path d="M12.352 22a1.047 1.047 0 0 1-.45-.412c-1.737-2.499-3.486-4.988-5.213-7.494a6.772 6.772 0 0 1-1.155-3.249c-.292-3.04 1.325-5.964 4.067-7.17 2.661-1.173 5.175-.816 7.425 1.06a6.73 6.73 0 0 1 1.657 2.035c.415.782.674 1.64.762 2.525a7.057 7.057 0 0 1-1.279 5.016 8687.2 8687.2 0 0 0-5.046 7.233c-.11.198-.276.357-.477.456h-.291zm2.476-11.848a2.4 2.4 0 0 0-.386-1.316 2.342 2.342 0 0 0-1.038-.878 2.298 2.298 0 0 0-2.54.49 2.382 2.382 0 0 0-.65 1.204c-.096.458-.055.934.115 1.368.17.434.463.808.841 1.074.38.266.826.411 1.286.42a2.31 2.31 0 0 0 1.669-.681 2.417 2.417 0 0 0 .704-1.681z" fill="#979197"/>
</svg>
