<svg width="30" height="30" viewBox="0 0 30 30" fill="none" xmlns="http://www.w3.org/2000/svg">
    <path fill-rule="evenodd" clip-rule="evenodd" d="M7 8a5 5 0 0 1 10 0v1a1 1 0 1 1-2 0V8a3 3 0 1 0-6 0v1a1 1 0 0 1-2 0V8z" fill="#554D56"/>
    <path fill-rule="evenodd" clip-rule="evenodd" d="M4.655 8.13C4 8.95 4 10.157 4 12.57c0 3.22 0 4.829.873 5.923a4 4 0 0 0 .633.633C6.6 20 8.21 20 11.429 20h1.142c3.22 0 4.829 0 5.923-.873.234-.186.447-.399.633-.633C20 17.4 20 15.79 20 12.571c0-2.414 0-3.62-.654-4.441-.14-.176-.3-.335-.476-.475C18.05 7 16.843 7 14.43 7H9.57c-2.414 0-3.62 0-4.441.655-.176.14-.335.299-.475.475zM12 14a1 1 0 1 0 0-2 1 1 0 0 0 0 2zm3-1a3.001 3.001 0 0 1-2 2.83V18h-2v-2.17A3.001 3.001 0 1 1 15 13z" fill="#554D56"/>
</svg>
