<svg width="700" height="133" viewBox="0 0 390 123" fill="none" xmlns="http://www.w3.org/2000/svg">
    <path fill-rule="evenodd" clip-rule="evenodd" d="M213.783 54.132c0-3.157-2.184-5.801-5.241-6.61-.696-3.359-3.818-5.91-7.474-5.91h-.016c-1.375-2.332-3.996-3.84-6.827-3.84-2.482 0-4.738 1.104-6.193 2.901a2.858 2.858 0 0 1-2.084 1.054c-2.858.122-5.3 1.8-6.455 4.19a2.965 2.965 0 0 1-1.9 1.57c-3.078.806-5.351 3.51-5.351 6.723 0 3.84 3.251 6.967 7.263 6.967.107 0 .236-.01.388-.023l.097-.008c1.958-.171 3.85.497 5.177 1.85a5.497 5.497 0 0 1 1.194 1.837c.391.998 1.23 1.88 2.302 1.88h8.599c1.098 0 1.952-.924 2.335-1.953a5.694 5.694 0 0 1 1.309-2.028c1.294-1.322 3.122-1.96 4.999-1.757.291.03.534.046.712.046 3.947 0 7.166-3.095 7.166-6.89zm-13.912 15.583h-13.734c-.578 0-1.104.486-1.245 1.192-.717 3.484-2.107 7.09-3.864 10.628-.44.888.54 1.86 1.408 1.382l4.907-2.703a1.066 1.066 0 0 1 1.04-.016c.334.173.591.518.706.942l.697 2.524c.241.874 1.434.987 1.835.174l1.486-3.012c.244-.471.693-.77 1.116-.754.463 0 .873.299 1.104.785l4.221 9.09c.37.798 1.519.75 1.821-.076l3.239-8.873c.026-.063.034-.13.004-.19-1.582-3.297-2.835-6.653-3.496-9.9-.141-.707-.667-1.193-1.245-1.193zm5.33 18.183c.594-1.555 2.751-1.732 3.65-.331 7.163 11.16 16.545 20.329 16.688 20.469.423.417.581 1.097.396 1.715-.184.619-.686 1.02-1.24 1.02h-63.366c-.555 0-1.056-.401-1.241-1.02-.185-.618-.026-1.298.396-1.715.13-.122 8.191-8.008 15.075-18.046.183-.266.427-.485.713-.636l8.533-4.508a1.972 1.972 0 0 1 2.817 1.2l1.192 4.156c.158.572.594.974 1.109 1.035.501.078 1.003-.216 1.267-.726l1.217-2.358c.745-1.444 2.817-1.419 3.527.042l3.837 7.895c.237.495.673.788 1.148.788h.066c.489-.03.938-.386 1.136-.912l3.08-8.067z" fill="#FDBD39"/>
    <path d="M213.252 36.245c1.646-3.123 3.117-6.2 5.582-8.776 3.039-3.175 6.873-7.342 11.012-9.095 1.821-.772-.175 3.25-.181 3.263-1.975 4.12-4.358 8.037-6.554 12.04a217.565 217.565 0 0 0-2.624 4.901c-.312.603-1.376 2.184-.764 1.889 1.974-.953 4.083-3.09 5.818-4.333 7.888-5.651 16.098-10.893 24.273-16.122.319-.204 4.584-2.3 4.513-2.041-.581 2.153-3.439 4.664-4.707 6.29-2.581 3.311-5 6.664-7.207 10.235-.377.61-2.42 2.994-.528 3.027.954.016 1.771-.286 2.68-.597 4.279-1.467 8.462-3.242 12.678-4.874 7.581-2.935 15.138-5.951 22.746-8.804M205.504 30.996c2.349-6.945 5.919-13.272 10.498-18.996" stroke="#F69833" stroke-width="4" stroke-linecap="round"/>
</svg>
