<svg width="20" height="20" viewBox="0 0 20 20" fill="none" xmlns="http://www.w3.org/2000/svg">
    <path fill-rule="evenodd" clip-rule="evenodd" d="M10 5.833A1.667 1.667 0 1 0 10 2.5a1.667 1.667 0 0 0 0 3.333zM1.665 7.5h16.667V10h-.115a2 2 0 0 0-1.913 1.627l-.61 2.74c-.333 1.502-.5 2.253-1.049 2.693-.548.44-1.317.44-2.855.44H8.208c-1.538 0-2.307 0-2.856-.44-.548-.44-.715-1.19-1.049-2.692l-.609-2.741a2 2 0 0 0-1.913-1.626L1.666 10V7.5zm5.252 3.18a1 1 0 0 1 1.151.822l.417 2.5a1 1 0 0 1-1.973.33l-.417-2.5a1 1 0 0 1 .822-1.152zm6.162 0a1 1 0 0 1 .822 1.151l-.416 2.5a1 1 0 0 1-1.973-.329l.417-2.5a1 1 0 0 1 1.15-.822z" fill="#979197"/>
</svg>
