<svg width="24" height="24" viewBox="0 0 24 24" fill="none" xmlns="http://www.w3.org/2000/svg">
    <path fill-rule="evenodd" clip-rule="evenodd" d="M17.205 10.796 19 9c.545-.545.818-.818.963-1.112a2 2 0 0 0 0-1.776c-.145-.294-.418-.567-.963-1.112-.546-.545-.818-.818-1.112-.964a2 2 0 0 0-1.776 0c-.294.146-.567.419-1.112.964l-1.819 1.819a10.9 10.9 0 0 0 4.023 3.977zm-5.477-2.523-6.87 6.87c-.426.426-.638.638-.778.9-.14.26-.199.555-.317 1.145l-.615 3.077c-.067.332-.1.498-.005.593.094.095.26.061.593-.005l3.077-.616c.59-.117.884-.176 1.145-.316.262-.14.474-.352.9-.777l6.888-6.89a12.903 12.903 0 0 1-4.018-3.98z" fill="#EE6723"/>
</svg>
